<mxfile host="app.diagrams.net" modified="2023-03-15T20:03:17.291Z" agent="5.0 (Macintosh; Intel Mac OS X 10_15_7) AppleWebKit/537.36 (KHTML, like Gecko) Chrome/110.0.0.0 Safari/537.36" etag="b6EjEkBNMr9r6d0Mnv2-" version="20.8.23" type="github">
  <diagram name="Page-1" id="2a216829-ef6e-dabb-86c1-c78162f3ba2b">
    <mxGraphModel dx="2039" dy="1062" grid="1" gridSize="10" guides="1" tooltips="1" connect="1" arrows="1" fold="1" page="1" pageScale="1" pageWidth="850" pageHeight="1100" background="none" math="0" shadow="0">
      <root>
        <mxCell id="0" />
        <mxCell id="1" parent="0" />
        <mxCell id="buJwPtgAoE2A6jRwofxj-17" style="edgeStyle=orthogonalEdgeStyle;rounded=0;orthogonalLoop=1;jettySize=auto;html=1;exitX=0.75;exitY=0.1;exitDx=0;exitDy=0;exitPerimeter=0;" edge="1" parent="1" source="buJwPtgAoE2A6jRwofxj-1">
          <mxGeometry relative="1" as="geometry">
            <mxPoint x="610" y="70" as="targetPoint" />
            <Array as="points">
              <mxPoint x="510" y="16" />
              <mxPoint x="510" y="70" />
              <mxPoint x="610" y="70" />
            </Array>
          </mxGeometry>
        </mxCell>
        <mxCell id="buJwPtgAoE2A6jRwofxj-31" style="edgeStyle=orthogonalEdgeStyle;rounded=0;orthogonalLoop=1;jettySize=auto;html=1;exitX=0.25;exitY=0.1;exitDx=0;exitDy=0;exitPerimeter=0;entryX=1;entryY=0.5;entryDx=0;entryDy=0;" edge="1" parent="1" source="buJwPtgAoE2A6jRwofxj-1" target="buJwPtgAoE2A6jRwofxj-6">
          <mxGeometry relative="1" as="geometry" />
        </mxCell>
        <mxCell id="buJwPtgAoE2A6jRwofxj-1" value="User" style="shape=umlActor;verticalLabelPosition=bottom;verticalAlign=top;html=1;outlineConnect=0;" vertex="1" parent="1">
          <mxGeometry x="340" y="10" width="30" height="60" as="geometry" />
        </mxCell>
        <mxCell id="buJwPtgAoE2A6jRwofxj-6" value="Accounts" style="swimlane;whiteSpace=wrap;html=1;" vertex="1" parent="1">
          <mxGeometry x="-110" y="20" width="370" height="130" as="geometry" />
        </mxCell>
        <mxCell id="buJwPtgAoE2A6jRwofxj-2" value="USD" style="shape=cylinder3;whiteSpace=wrap;html=1;boundedLbl=1;backgroundOutline=1;size=15;fillColor=#d5e8d4;strokeColor=#82b366;" vertex="1" parent="buJwPtgAoE2A6jRwofxj-6">
          <mxGeometry x="35" y="35" width="60" height="80" as="geometry" />
        </mxCell>
        <mxCell id="buJwPtgAoE2A6jRwofxj-3" value="UAH" style="shape=cylinder3;whiteSpace=wrap;html=1;boundedLbl=1;backgroundOutline=1;size=15;fillColor=#0050ef;fontColor=#ffffff;strokeColor=#001DBC;" vertex="1" parent="buJwPtgAoE2A6jRwofxj-6">
          <mxGeometry x="115" y="35" width="60" height="80" as="geometry" />
        </mxCell>
        <mxCell id="buJwPtgAoE2A6jRwofxj-4" value="GBR" style="shape=cylinder3;whiteSpace=wrap;html=1;boundedLbl=1;backgroundOutline=1;size=15;fillColor=#fff2cc;strokeColor=#d6b656;" vertex="1" parent="buJwPtgAoE2A6jRwofxj-6">
          <mxGeometry x="195" y="35" width="60" height="80" as="geometry" />
        </mxCell>
        <mxCell id="buJwPtgAoE2A6jRwofxj-5" value="PLN" style="shape=cylinder3;whiteSpace=wrap;html=1;boundedLbl=1;backgroundOutline=1;size=15;fillColor=#dae8fc;strokeColor=#6c8ebf;" vertex="1" parent="buJwPtgAoE2A6jRwofxj-6">
          <mxGeometry x="275" y="35" width="60" height="80" as="geometry" />
        </mxCell>
        <mxCell id="buJwPtgAoE2A6jRwofxj-9" value="Actions on internet" style="swimlane;whiteSpace=wrap;html=1;" vertex="1" parent="1">
          <mxGeometry x="610" y="20" width="210" height="590" as="geometry" />
        </mxCell>
        <mxCell id="buJwPtgAoE2A6jRwofxj-10" value="Store 1" style="shape=process;whiteSpace=wrap;html=1;backgroundOutline=1;" vertex="1" parent="buJwPtgAoE2A6jRwofxj-9">
          <mxGeometry x="45" y="40" width="120" height="60" as="geometry" />
        </mxCell>
        <mxCell id="buJwPtgAoE2A6jRwofxj-11" value="Store 2" style="shape=process;whiteSpace=wrap;html=1;backgroundOutline=1;" vertex="1" parent="buJwPtgAoE2A6jRwofxj-9">
          <mxGeometry x="45" y="110" width="120" height="60" as="geometry" />
        </mxCell>
        <mxCell id="buJwPtgAoE2A6jRwofxj-12" value="Store 3" style="shape=process;whiteSpace=wrap;html=1;backgroundOutline=1;" vertex="1" parent="buJwPtgAoE2A6jRwofxj-9">
          <mxGeometry x="45" y="190" width="120" height="60" as="geometry" />
        </mxCell>
        <mxCell id="buJwPtgAoE2A6jRwofxj-13" value="Store 4" style="shape=process;whiteSpace=wrap;html=1;backgroundOutline=1;" vertex="1" parent="buJwPtgAoE2A6jRwofxj-9">
          <mxGeometry x="45" y="270" width="120" height="60" as="geometry" />
        </mxCell>
        <mxCell id="buJwPtgAoE2A6jRwofxj-14" value="Store 5" style="shape=process;whiteSpace=wrap;html=1;backgroundOutline=1;" vertex="1" parent="buJwPtgAoE2A6jRwofxj-9">
          <mxGeometry x="45" y="350" width="120" height="60" as="geometry" />
        </mxCell>
        <mxCell id="buJwPtgAoE2A6jRwofxj-15" value="Store 6" style="shape=process;whiteSpace=wrap;html=1;backgroundOutline=1;" vertex="1" parent="buJwPtgAoE2A6jRwofxj-9">
          <mxGeometry x="45" y="420" width="120" height="60" as="geometry" />
        </mxCell>
        <mxCell id="buJwPtgAoE2A6jRwofxj-16" value="Store 7" style="shape=process;whiteSpace=wrap;html=1;backgroundOutline=1;" vertex="1" parent="buJwPtgAoE2A6jRwofxj-9">
          <mxGeometry x="45" y="500" width="120" height="60" as="geometry" />
        </mxCell>
        <mxCell id="buJwPtgAoE2A6jRwofxj-20" value="Incoming transactions" style="swimlane;whiteSpace=wrap;html=1;" vertex="1" parent="1">
          <mxGeometry x="20" y="650" width="730" height="190" as="geometry" />
        </mxCell>
        <mxCell id="buJwPtgAoE2A6jRwofxj-32" value="10 usd" style="shape=step;perimeter=stepPerimeter;whiteSpace=wrap;html=1;fixedSize=1;rotation=-90;fillColor=#d5e8d4;strokeColor=#82b366;" vertex="1" parent="buJwPtgAoE2A6jRwofxj-20">
          <mxGeometry x="5" y="60" width="120" height="80" as="geometry" />
        </mxCell>
        <mxCell id="buJwPtgAoE2A6jRwofxj-57" style="edgeStyle=orthogonalEdgeStyle;rounded=1;orthogonalLoop=1;jettySize=auto;html=1;exitX=0;exitY=0.5;exitDx=0;exitDy=0;shadow=0;gradientColor=default;" edge="1" parent="buJwPtgAoE2A6jRwofxj-20" source="buJwPtgAoE2A6jRwofxj-33">
          <mxGeometry relative="1" as="geometry">
            <mxPoint x="340" y="230" as="targetPoint" />
            <Array as="points">
              <mxPoint x="170" y="200" />
              <mxPoint x="340" y="200" />
            </Array>
          </mxGeometry>
        </mxCell>
        <mxCell id="buJwPtgAoE2A6jRwofxj-33" value="5 pln" style="shape=step;perimeter=stepPerimeter;whiteSpace=wrap;html=1;fixedSize=1;rotation=-90;fillColor=#dae8fc;strokeColor=#6c8ebf;" vertex="1" parent="buJwPtgAoE2A6jRwofxj-20">
          <mxGeometry x="110" y="60" width="120" height="80" as="geometry" />
        </mxCell>
        <mxCell id="buJwPtgAoE2A6jRwofxj-58" style="edgeStyle=orthogonalEdgeStyle;rounded=1;orthogonalLoop=1;jettySize=auto;html=1;exitX=0;exitY=0.5;exitDx=0;exitDy=0;shadow=0;gradientColor=default;" edge="1" parent="buJwPtgAoE2A6jRwofxj-20" source="buJwPtgAoE2A6jRwofxj-34">
          <mxGeometry relative="1" as="geometry">
            <mxPoint x="340" y="230" as="targetPoint" />
            <Array as="points">
              <mxPoint x="270" y="190" />
              <mxPoint x="340" y="190" />
            </Array>
          </mxGeometry>
        </mxCell>
        <mxCell id="buJwPtgAoE2A6jRwofxj-34" value="25 &lt;br&gt;gbr" style="shape=step;perimeter=stepPerimeter;whiteSpace=wrap;html=1;fixedSize=1;rotation=-90;fillColor=#fff2cc;strokeColor=#d6b656;" vertex="1" parent="buJwPtgAoE2A6jRwofxj-20">
          <mxGeometry x="210" y="60" width="120" height="80" as="geometry" />
        </mxCell>
        <mxCell id="buJwPtgAoE2A6jRwofxj-59" style="edgeStyle=orthogonalEdgeStyle;rounded=1;orthogonalLoop=1;jettySize=auto;html=1;exitX=0;exitY=0.5;exitDx=0;exitDy=0;shadow=0;gradientColor=default;" edge="1" parent="buJwPtgAoE2A6jRwofxj-20" source="buJwPtgAoE2A6jRwofxj-35">
          <mxGeometry relative="1" as="geometry">
            <mxPoint x="340" y="230" as="targetPoint" />
          </mxGeometry>
        </mxCell>
        <mxCell id="buJwPtgAoE2A6jRwofxj-35" value="100 uah" style="shape=step;perimeter=stepPerimeter;whiteSpace=wrap;html=1;fixedSize=1;rotation=-90;fillColor=#0050ef;fontColor=#ffffff;strokeColor=#001DBC;" vertex="1" parent="buJwPtgAoE2A6jRwofxj-20">
          <mxGeometry x="310" y="60" width="120" height="80" as="geometry" />
        </mxCell>
        <mxCell id="buJwPtgAoE2A6jRwofxj-60" style="edgeStyle=orthogonalEdgeStyle;rounded=1;orthogonalLoop=1;jettySize=auto;html=1;exitX=0;exitY=0.5;exitDx=0;exitDy=0;shadow=0;gradientColor=default;" edge="1" parent="buJwPtgAoE2A6jRwofxj-20" source="buJwPtgAoE2A6jRwofxj-36">
          <mxGeometry relative="1" as="geometry">
            <mxPoint x="340" y="230" as="targetPoint" />
            <Array as="points">
              <mxPoint x="465" y="190" />
              <mxPoint x="340" y="190" />
            </Array>
          </mxGeometry>
        </mxCell>
        <mxCell id="buJwPtgAoE2A6jRwofxj-36" value="25 UAH" style="shape=step;perimeter=stepPerimeter;whiteSpace=wrap;html=1;fixedSize=1;rotation=-90;fillColor=#0050ef;fontColor=#ffffff;strokeColor=#001DBC;" vertex="1" parent="buJwPtgAoE2A6jRwofxj-20">
          <mxGeometry x="405" y="55" width="120" height="80" as="geometry" />
        </mxCell>
        <mxCell id="buJwPtgAoE2A6jRwofxj-37" value="15 USD" style="shape=step;perimeter=stepPerimeter;whiteSpace=wrap;html=1;fixedSize=1;rotation=-90;fillColor=#d5e8d4;strokeColor=#82b366;" vertex="1" parent="buJwPtgAoE2A6jRwofxj-20">
          <mxGeometry x="500" y="55" width="120" height="80" as="geometry" />
        </mxCell>
        <mxCell id="buJwPtgAoE2A6jRwofxj-38" value="25 USD" style="shape=step;perimeter=stepPerimeter;whiteSpace=wrap;html=1;fixedSize=1;rotation=-90;fillColor=#d5e8d4;strokeColor=#82b366;" vertex="1" parent="buJwPtgAoE2A6jRwofxj-20">
          <mxGeometry x="600" y="55" width="120" height="80" as="geometry" />
        </mxCell>
        <mxCell id="buJwPtgAoE2A6jRwofxj-21" style="edgeStyle=orthogonalEdgeStyle;rounded=0;orthogonalLoop=1;jettySize=auto;html=1;exitX=0;exitY=0.5;exitDx=0;exitDy=0;" edge="1" parent="1" source="buJwPtgAoE2A6jRwofxj-10" target="buJwPtgAoE2A6jRwofxj-20">
          <mxGeometry relative="1" as="geometry">
            <Array as="points">
              <mxPoint x="550" y="90" />
              <mxPoint x="550" y="350" />
              <mxPoint x="110" y="350" />
            </Array>
          </mxGeometry>
        </mxCell>
        <mxCell id="buJwPtgAoE2A6jRwofxj-22" style="edgeStyle=orthogonalEdgeStyle;rounded=0;orthogonalLoop=1;jettySize=auto;html=1;exitX=0;exitY=0.5;exitDx=0;exitDy=0;" edge="1" parent="1" source="buJwPtgAoE2A6jRwofxj-11" target="buJwPtgAoE2A6jRwofxj-20">
          <mxGeometry relative="1" as="geometry">
            <Array as="points">
              <mxPoint x="560" y="160" />
              <mxPoint x="560" y="380" />
              <mxPoint x="180" y="380" />
            </Array>
          </mxGeometry>
        </mxCell>
        <mxCell id="buJwPtgAoE2A6jRwofxj-26" style="edgeStyle=orthogonalEdgeStyle;rounded=0;orthogonalLoop=1;jettySize=auto;html=1;exitX=0;exitY=0.5;exitDx=0;exitDy=0;" edge="1" parent="1" source="buJwPtgAoE2A6jRwofxj-15" target="buJwPtgAoE2A6jRwofxj-20">
          <mxGeometry relative="1" as="geometry">
            <Array as="points">
              <mxPoint x="340" y="470" />
            </Array>
          </mxGeometry>
        </mxCell>
        <mxCell id="buJwPtgAoE2A6jRwofxj-28" style="edgeStyle=orthogonalEdgeStyle;rounded=0;orthogonalLoop=1;jettySize=auto;html=1;exitX=0;exitY=0.5;exitDx=0;exitDy=0;entryX=0.641;entryY=-0.013;entryDx=0;entryDy=0;entryPerimeter=0;" edge="1" parent="1" source="buJwPtgAoE2A6jRwofxj-16" target="buJwPtgAoE2A6jRwofxj-20">
          <mxGeometry relative="1" as="geometry" />
        </mxCell>
        <mxCell id="buJwPtgAoE2A6jRwofxj-29" style="edgeStyle=orthogonalEdgeStyle;rounded=0;orthogonalLoop=1;jettySize=auto;html=1;exitX=0;exitY=0.5;exitDx=0;exitDy=0;" edge="1" parent="1" source="buJwPtgAoE2A6jRwofxj-14">
          <mxGeometry relative="1" as="geometry">
            <mxPoint x="290" y="648" as="targetPoint" />
            <Array as="points">
              <mxPoint x="590" y="400" />
              <mxPoint x="590" y="430" />
              <mxPoint x="284" y="430" />
            </Array>
          </mxGeometry>
        </mxCell>
        <mxCell id="buJwPtgAoE2A6jRwofxj-30" style="edgeStyle=orthogonalEdgeStyle;rounded=1;orthogonalLoop=1;jettySize=auto;html=1;exitX=0;exitY=0.5;exitDx=0;exitDy=0;shadow=0;" edge="1" parent="1" source="buJwPtgAoE2A6jRwofxj-12">
          <mxGeometry relative="1" as="geometry">
            <mxPoint x="230" y="648" as="targetPoint" />
            <Array as="points">
              <mxPoint x="570" y="240" />
              <mxPoint x="570" y="400" />
              <mxPoint x="227" y="400" />
            </Array>
          </mxGeometry>
        </mxCell>
        <mxCell id="buJwPtgAoE2A6jRwofxj-41" value="" style="shape=arrow;endArrow=classic;html=1;rounded=0;entryX=0;entryY=1;entryDx=0;entryDy=0;exitX=0;exitY=0.25;exitDx=0;exitDy=0;fillColor=#d5e8d4;strokeColor=#82b366;gradientColor=#4747FF;sourcePerimeterSpacing=0;shadow=0;" edge="1" parent="1" source="buJwPtgAoE2A6jRwofxj-20" target="buJwPtgAoE2A6jRwofxj-6">
          <mxGeometry width="50" height="50" relative="1" as="geometry">
            <mxPoint x="460" y="530" as="sourcePoint" />
            <mxPoint x="510" y="480" as="targetPoint" />
          </mxGeometry>
        </mxCell>
        <mxCell id="buJwPtgAoE2A6jRwofxj-42" value="" style="shape=cube;whiteSpace=wrap;html=1;boundedLbl=1;backgroundOutline=1;darkOpacity=0.05;darkOpacity2=0.1;" vertex="1" parent="1">
          <mxGeometry x="30" y="880" width="660" height="150" as="geometry" />
        </mxCell>
        <mxCell id="buJwPtgAoE2A6jRwofxj-47" value="" style="html=1;whiteSpace=wrap;shape=isoCube2;backgroundOutline=1;isoAngle=15;gradientColor=#4F2BFF;" vertex="1" parent="1">
          <mxGeometry x="80" y="910" width="90" height="100" as="geometry" />
        </mxCell>
        <mxCell id="buJwPtgAoE2A6jRwofxj-48" value="" style="html=1;whiteSpace=wrap;shape=isoCube2;backgroundOutline=1;isoAngle=15;fillColor=#dae8fc;strokeColor=#6c8ebf;gradientColor=#2652FF;" vertex="1" parent="1">
          <mxGeometry x="180" y="910" width="90" height="100" as="geometry" />
        </mxCell>
        <mxCell id="buJwPtgAoE2A6jRwofxj-49" value="" style="html=1;whiteSpace=wrap;shape=isoCube2;backgroundOutline=1;isoAngle=15;gradientColor=#7d86ff;" vertex="1" parent="1">
          <mxGeometry x="280" y="910" width="90" height="100" as="geometry" />
        </mxCell>
        <mxCell id="buJwPtgAoE2A6jRwofxj-50" value="" style="html=1;whiteSpace=wrap;shape=isoCube2;backgroundOutline=1;isoAngle=15;gradientColor=#B914FF;" vertex="1" parent="1">
          <mxGeometry x="380" y="910" width="90" height="100" as="geometry" />
        </mxCell>
        <mxCell id="buJwPtgAoE2A6jRwofxj-51" value="" style="html=1;whiteSpace=wrap;shape=isoCube2;backgroundOutline=1;isoAngle=15;gradientColor=#36FF4A;" vertex="1" parent="1">
          <mxGeometry x="480" y="910" width="90" height="100" as="geometry" />
        </mxCell>
        <mxCell id="buJwPtgAoE2A6jRwofxj-52" value="" style="html=1;whiteSpace=wrap;shape=isoCube2;backgroundOutline=1;isoAngle=15;gradientColor=#FF7E3D;" vertex="1" parent="1">
          <mxGeometry x="580" y="905" width="90" height="100" as="geometry" />
        </mxCell>
        <mxCell id="buJwPtgAoE2A6jRwofxj-53" value="Transaction histories" style="text;html=1;strokeColor=none;fillColor=none;align=center;verticalAlign=middle;whiteSpace=wrap;rounded=0;" vertex="1" parent="1">
          <mxGeometry x="290" y="875" width="140" height="30" as="geometry" />
        </mxCell>
        <mxCell id="buJwPtgAoE2A6jRwofxj-56" style="edgeStyle=orthogonalEdgeStyle;rounded=1;orthogonalLoop=1;jettySize=auto;html=1;exitX=0;exitY=0.5;exitDx=0;exitDy=0;shadow=0;gradientColor=default;" edge="1" parent="1" source="buJwPtgAoE2A6jRwofxj-32" target="buJwPtgAoE2A6jRwofxj-42">
          <mxGeometry relative="1" as="geometry" />
        </mxCell>
        <mxCell id="buJwPtgAoE2A6jRwofxj-61" style="edgeStyle=orthogonalEdgeStyle;rounded=1;orthogonalLoop=1;jettySize=auto;html=1;exitX=0;exitY=0.5;exitDx=0;exitDy=0;shadow=0;gradientColor=default;" edge="1" parent="1" source="buJwPtgAoE2A6jRwofxj-37" target="buJwPtgAoE2A6jRwofxj-53">
          <mxGeometry relative="1" as="geometry">
            <Array as="points">
              <mxPoint x="580" y="840" />
              <mxPoint x="360" y="840" />
            </Array>
          </mxGeometry>
        </mxCell>
        <mxCell id="buJwPtgAoE2A6jRwofxj-62" style="edgeStyle=orthogonalEdgeStyle;rounded=1;orthogonalLoop=1;jettySize=auto;html=1;exitX=0;exitY=0.5;exitDx=0;exitDy=0;entryX=0.5;entryY=0;entryDx=0;entryDy=0;shadow=0;gradientColor=default;" edge="1" parent="1" source="buJwPtgAoE2A6jRwofxj-38" target="buJwPtgAoE2A6jRwofxj-53">
          <mxGeometry relative="1" as="geometry">
            <Array as="points">
              <mxPoint x="680" y="840" />
              <mxPoint x="360" y="840" />
            </Array>
          </mxGeometry>
        </mxCell>
        <mxCell id="buJwPtgAoE2A6jRwofxj-64" value="Outgoing transactions" style="swimlane;fontStyle=0;childLayout=stackLayout;horizontal=1;startSize=30;horizontalStack=0;resizeParent=1;resizeParentMax=0;resizeLast=0;collapsible=1;marginBottom=0;whiteSpace=wrap;html=1;gradientColor=#FF7E3D;" vertex="1" parent="1">
          <mxGeometry x="260" y="160" width="260" height="120" as="geometry" />
        </mxCell>
        <mxCell id="buJwPtgAoE2A6jRwofxj-65" value="PLN &amp;gt; USD" style="text;strokeColor=none;fillColor=none;align=left;verticalAlign=middle;spacingLeft=4;spacingRight=4;overflow=hidden;points=[[0,0.5],[1,0.5]];portConstraint=eastwest;rotatable=0;whiteSpace=wrap;html=1;" vertex="1" parent="buJwPtgAoE2A6jRwofxj-64">
          <mxGeometry y="30" width="260" height="30" as="geometry" />
        </mxCell>
        <mxCell id="buJwPtgAoE2A6jRwofxj-66" value="GBR &amp;gt; USD" style="text;strokeColor=none;fillColor=none;align=left;verticalAlign=middle;spacingLeft=4;spacingRight=4;overflow=hidden;points=[[0,0.5],[1,0.5]];portConstraint=eastwest;rotatable=0;whiteSpace=wrap;html=1;" vertex="1" parent="buJwPtgAoE2A6jRwofxj-64">
          <mxGeometry y="60" width="260" height="30" as="geometry" />
        </mxCell>
        <mxCell id="buJwPtgAoE2A6jRwofxj-67" value="UAH &amp;gt; USD" style="text;strokeColor=none;fillColor=none;align=left;verticalAlign=middle;spacingLeft=4;spacingRight=4;overflow=hidden;points=[[0,0.5],[1,0.5]];portConstraint=eastwest;rotatable=0;whiteSpace=wrap;html=1;" vertex="1" parent="buJwPtgAoE2A6jRwofxj-64">
          <mxGeometry y="90" width="260" height="30" as="geometry" />
        </mxCell>
        <mxCell id="buJwPtgAoE2A6jRwofxj-68" style="edgeStyle=orthogonalEdgeStyle;rounded=1;orthogonalLoop=1;jettySize=auto;html=1;exitX=0.855;exitY=1;exitDx=0;exitDy=-4.35;exitPerimeter=0;entryX=0.25;entryY=0;entryDx=0;entryDy=0;shadow=0;fillColor=#d5e8d4;strokeColor=#82b366;strokeWidth=2;" edge="1" parent="1" source="buJwPtgAoE2A6jRwofxj-5" target="buJwPtgAoE2A6jRwofxj-64">
          <mxGeometry relative="1" as="geometry" />
        </mxCell>
        <mxCell id="buJwPtgAoE2A6jRwofxj-69" style="edgeStyle=orthogonalEdgeStyle;rounded=1;orthogonalLoop=1;jettySize=auto;html=1;exitX=0;exitY=0.5;exitDx=0;exitDy=0;entryX=0.5;entryY=1;entryDx=0;entryDy=0;entryPerimeter=0;shadow=0;fillColor=#d5e8d4;strokeColor=#82b366;strokeWidth=2;" edge="1" parent="1" source="buJwPtgAoE2A6jRwofxj-66" target="buJwPtgAoE2A6jRwofxj-2">
          <mxGeometry relative="1" as="geometry" />
        </mxCell>
        <mxCell id="buJwPtgAoE2A6jRwofxj-70" style="edgeStyle=orthogonalEdgeStyle;rounded=1;orthogonalLoop=1;jettySize=auto;html=1;exitX=0.855;exitY=1;exitDx=0;exitDy=-4.35;exitPerimeter=0;entryX=0;entryY=0.167;entryDx=0;entryDy=0;entryPerimeter=0;shadow=0;strokeWidth=2;fillColor=#fff2cc;strokeColor=#d6b656;" edge="1" parent="1" source="buJwPtgAoE2A6jRwofxj-4" target="buJwPtgAoE2A6jRwofxj-64">
          <mxGeometry relative="1" as="geometry">
            <Array as="points">
              <mxPoint x="136" y="180" />
            </Array>
          </mxGeometry>
        </mxCell>
        <mxCell id="buJwPtgAoE2A6jRwofxj-71" style="edgeStyle=orthogonalEdgeStyle;rounded=1;orthogonalLoop=1;jettySize=auto;html=1;exitX=0;exitY=0.5;exitDx=0;exitDy=0;entryX=0.5;entryY=1;entryDx=0;entryDy=0;entryPerimeter=0;shadow=0;strokeWidth=2;fillColor=#fff2cc;strokeColor=#d6b656;" edge="1" parent="1" source="buJwPtgAoE2A6jRwofxj-65" target="buJwPtgAoE2A6jRwofxj-2">
          <mxGeometry relative="1" as="geometry" />
        </mxCell>
        <mxCell id="buJwPtgAoE2A6jRwofxj-72" style="edgeStyle=orthogonalEdgeStyle;rounded=1;orthogonalLoop=1;jettySize=auto;html=1;exitX=0.855;exitY=0;exitDx=0;exitDy=4.35;exitPerimeter=0;entryX=0.288;entryY=0.008;entryDx=0;entryDy=0;entryPerimeter=0;shadow=0;strokeWidth=2;fillColor=#0050ef;strokeColor=#001DBC;" edge="1" parent="1" source="buJwPtgAoE2A6jRwofxj-3" target="buJwPtgAoE2A6jRwofxj-64">
          <mxGeometry relative="1" as="geometry">
            <Array as="points">
              <mxPoint x="56" y="50" />
              <mxPoint x="335" y="50" />
            </Array>
          </mxGeometry>
        </mxCell>
        <mxCell id="buJwPtgAoE2A6jRwofxj-73" style="edgeStyle=orthogonalEdgeStyle;rounded=1;orthogonalLoop=1;jettySize=auto;html=1;exitX=0;exitY=0.5;exitDx=0;exitDy=0;entryX=0.5;entryY=1;entryDx=0;entryDy=0;entryPerimeter=0;shadow=0;strokeWidth=2;gradientColor=default;" edge="1" parent="1" source="buJwPtgAoE2A6jRwofxj-67" target="buJwPtgAoE2A6jRwofxj-2">
          <mxGeometry relative="1" as="geometry" />
        </mxCell>
      </root>
    </mxGraphModel>
  </diagram>
</mxfile>
